<?xml version="1.0" encoding="utf-8"?>
<!-- Generator: Adobe Illustrator 24.2.3, SVG Export Plug-In . SVG Version: 6.00 Build 0)  -->
<svg version="1.0" id="Layer_1" xmlns="http://www.w3.org/2000/svg" xmlns:xlink="http://www.w3.org/1999/xlink" x="0px" y="0px"
	 viewBox="0 0 500 350" style="enable-background:new 0 0 500 350;" xml:space="preserve">
<style type="text/css">
	.st0{fill:#F5F5F5;}
	.st1{fill:#F0F0F0;}
	.st2{fill:#F1F0F0;}
	.st3{fill:#FAFAFA;}
	.st4{fill:#FFFFFF;}
</style>
<g>
	<g>
		<path class="st0" d="M63.4,268.2c1.9-25.8,3.5-25.1,9.5-35.5c6-10.4,15.6-5.8,16,0c0.2,2.7,0.6,9.8,0.2,18.6
			c0.5-3.6,0.9-5.7,1-6.1c3.2-17.2,21.6-13,22.1-4.9c0.5,8.1,0.8,8.7-1.9,38.2c-2.7,29.5-16.4,36-16.4,36s-11.2-5-8.9-28.7
			c0.4-4.4,0.9-8.6,1.3-12.4c-0.9,3.8-2,7.5-3.4,11c-6.2,15.4-12.3,18.2-12.3,18.2S61.2,297.7,63.4,268.2z"/>
		<path class="st0" d="M116.4,244.3c1.8-7.4,12.6-7.8,16.7-0.5c2.2,3.8,3.2,6,3.8,14.3c0.2-1.9,0.3-2.9,0.3-2.9
			c1.1-16.7,12.9-19.3,17.8-13.4c3.6,4.3,7.4,11,10.7,27.9c-2.2-14.4-2.7-25.3-2.7-25.9c-1-10.7,5.1-11.1,10.1-9.7
			c3.7,1.1,9.3,1.8,16.4,17.9c-1.2-8.3-1.6-13.6-1.6-13.6c-1.1-8.2,7.8-7.2,12.6-4.2c3.3,2,8.4,4,16.6,18.4
			c-1.4-3.3-2.1-5.3-2.1-5.3c-2.4-5.8-3.2-11.9,0.8-15.6c2.1-2,7.6-6.8,26.2,12.8c-1.1-1.7-1.7-2.7-1.7-2.7
			c-4.3-11.3,7.3-27.5,50.7,0.2c-3.2-3.6-4.8-5.8-4.8-5.8c-6.5-6.5-13.8-25,15.3-15.8c-2.9-2.1-3.4-3.4-4.6-5.7
			c-2.8-5.6,17.2-10.1,41.5-5.5c-16.7-5.5-20-8.2-23.6-12.6c-5.3-6.6,24.1-12.2,55.6-9.9c0,0,1.5,0,4.1,0.2
			c-41.2-6.3-44.6-21.6-37.9-30.3c4.6-6,23-10.5,45.4-11.2c-36.4-1.8-35.1-13.8-35.3-19c-0.2-5.2,17.6-14.4,53-19.3v-0.2
			c-44.1,5.6-45-2.2-47-7.4c-1.3-3.4,8.8-9.3,26.3-15.1c-25.7,4.5-26.6-4.1-28.3-7c-2.3-3.8,6.6-15.9,56.8-36.7
			c38.8-16.1,74.8-24.8,88.1-32.6c0,0-27.2,48.9-84.5,67.8c-0.8,0.2-1.5,0.5-2.2,0.7c4.7-1,9.7-1.9,14.8-2.7
			c43.1-7,75.6-10.4,76-10.6c0,0-30.1,32.9-87,41.8c-1.7,0.3-3.3,0.5-4.9,0.7v0.3c1.5-0.2,3.1-0.3,4.7-0.5
			c54.3-5.3,85.5,4.5,85.5,4.5s-32.8,33.8-100.7,35.5c7.8,0.4,15.8,1.2,23.6,2.6c32,5.8,50.8,15.1,50.8,15.1s-34.7,28-83,25.2
			c18.5,2.7,46.4,9.3,61.9,25.4c0,0-24.5,20-75,6.1c-1.2-0.3-2.4-0.7-3.5-1c15.3,6.2,32.9,16,42.8,30.8c0,0-20.4,16.8-68.2-6.4
			c-0.1-0.1-0.3-0.1-0.4-0.2c26.3,19.3,32.2,38.2,32.2,38.2s-16.2,9.1-47.2-8.1c-4.1-2.3-7.8-4.6-11.3-6.9
			c18.8,21.1,23.3,40.4,23.3,40.4s-15.7,10.6-47.7-7.3c-10.4-5.8-19.8-13.9-27.8-22.2c18.7,29.2,18.9,47.4,18.9,47.4
			s-10.8,4.4-28.7-10.9c-12.8-10.9-23-26.4-30.3-39.6c0.9,2.2,1.9,4.5,2.9,7c16.4,41.1,0,60.3,0,60.3c-10.7-3.4-21.2-20-28.6-39.5
			c1,23-4.8,38.5-4.8,38.5s-13.5-7.7-22.9-35.1c-2.9-8.4-5-17.4-6.6-25.9c0.6,3.8,1.1,8.1,1.6,12.8c4.1,36.9-8.6,49.9-8.6,49.9
			s-14.7-14.4-21-35.2c-1-3.5-1.8-7.3-2.3-11.1c-2.5,25.8-14.4,35.9-14.4,35.9s-10.7-1.2-12.2-36.1
			C109.1,260.8,116.4,244.3,116.4,244.3z"/>
	</g>
	<path class="st1" d="M66.8,223.4c4.7-6.6,14.3,3.5,14.3,3.5s-0.4,1.6-1.3,4.3c2.1-5.7,2.8-6.3,5.4-6.9c4.2-0.9,12.4,1.1,10.9,5.3
		c0,0,0,0.1-0.1,0.2c0.6-1.2,1-1.8,1-1.8c1-2.7,12.6,0.5,13.3,1.4c0.3,0.5,0.3,4-0.6,9.6c3.2-9.3,5.6-9.6,5.6-9.6l9.8,1.3
		c0,0,0.2,2.3,0.2,6.2c1.8-5,3.3-5.4,3.3-5.4l9.9,0.3c0,0,1.1,5.4,1,13.3c2.5-12.2,5.3-12.8,5.3-12.8l9.9,0.3c0,0,0.6,3.2,0.9,8.3
		c1.4-7.8,3.4-8.4,3.4-8.4l9.9-0.6c0,0,1.8,6.1,2.4,15.2c1.2-15,4.3-16,4.3-16l9.9-0.6c0,0,2.1,5.1,3.6,12.9
		c0.2-12.1,2.8-13.2,2.8-13.2l9.8-1.5c0,0,0,0.1,0.1,0.2c0.4-1.9,1-2.3,1-2.3l9.4-3.1c0,0,2.3,3,5,8.1c0-1.6,0.4-2,0.4-2l8.5-5.1
		c0,0,4.5,3.8,9.6,10.3c-4.6-8.7-3.4-10.6-3.4-10.6l7.7-6.9c0,0,7.5,4.9,15.8,13.9c-17.1-20.8-14.2-25.3-14.2-25.3l7.2-8.1
		c0,0,5,2.8,11.8,8.2c-0.8-1.7-0.6-2.3-0.6-2.3l6.1-9c0,0,4.9,2,11.9,6.2c-2.3-3.1-2.1-4.2-2.1-4.2l5.3-9.4c0,0,4.5,1.4,11.2,4.6
		c-0.5-0.9-0.5-1.3-0.5-1.3l4.2-10c0,0,6.2,1.2,15.1,4.5l2.5-10.5c0,0,4.8,0.1,12.1,1.3c-1.1-1-1.2-1.5-1.2-1.5l1.8-10.7
		c0,0,6.5-0.2,16.1,1c-5-2.5-5.3-4-5.3-4l1.2-10.7c0,0,5-0.5,12.7-0.1c-6-2.3-6.5-3.8-6.5-3.8l0.3-10.8c0,0,3.5-0.6,9.3-1
		c-3.7-1.2-4.1-2.2-4.1-2.2l-1.2-10.8c0,0,2.8-0.9,7.6-2c-5.2-0.5-5.9-1.7-5.9-1.7l-2.8-10.4c0,0,1.8-0.9,5.1-2.3l-3.2-7.4
		c0,0,0.2-0.1,0.5-0.4c-1,0-1.3-0.2-1.3-0.2l-4.7-6.5c0,0,0.1-0.1,0.2-0.2l-5.5-5.2c0,0,8.7-18.7,43.3-29.1c0,0-0.1,5-9.1,14.5
		c6.3-2.7,13.4-4.7,20.9-5.2c0,0,0.8,8.5-13.9,18.5c9.6-2.7,20.8-4.1,32.3-2.4c0,0-0.9,7.3-13.4,14.2c7.6,0.1,15.6,1.1,23.5,3.5
		c0,0-3.3,12.4-30.6,17.7c10.4,0.8,21.6,3.1,32.2,8.2c0,0-5.1,11.4-31.7,12.6c8.9,2.3,18,5.9,26.5,11.5c0,0-6.2,10-30.8,8.3
		c7.8,3,15.6,7.1,22.8,12.9c0,0-7,9.3-31.1,5.7c6.2,3.1,12.2,7.1,17.8,12.1c0,0-6.6,7.9-27.3,4.7c4.5,3,8.8,6.5,12.8,10.5
		c0,0-10,10.6-40.7-1c6.4,4.9,12.4,10.9,17.5,18c0,0-9.8,7.4-33.5-4.2c5,5.2,9.7,11.3,13.4,18.2c0,0-10,5.8-30.7-6.8
		c4.5,5.5,8.5,11.8,11.6,18.8c0,0-12.3,5.9-35.3-13.4c4.5,6.8,8.4,14.5,10.9,23.1c0,0-14.4,4.9-35.4-18.4c7,8.9,13.5,20.4,15.7,34.1
		c0,0-13.4,3.4-30.3-19.9c-1-1.4-1.9-2.7-2.8-3.9c3.7,7.6,6.3,16.7,5.6,26.8c0,0-12.8,1.5-23.6-19.3c1.4,7.6,1.5,15.8-1,24.2
		c0,0-9-2.1-15.6-14.6c-0.4,6.2-1.9,12.7-4.9,19c0,0-10.7-3-13.9-22.2c-0.5,7.8-2.6,16.2-7.3,24c0,0-10.7-4.1-11.9-24.2
		c-0.9,8.1-3.3,17-8.4,25.4c0,0-8-4.1-8.3-25.7c-1.6,8.3-4.8,17.4-10.9,25.5c0,0-6.7-4.2-6.1-22.6c-1.8,7.2-4.9,14.8-10.1,21.8
		c0,0-7-4.4-6.1-24c-2.5,7.3-6.3,14.8-12.3,21.5c0,0-6.5-5-3.8-24.1c-5,16.2-9.6,20.8-16.1,25.1c-3-5.7-3.9-13.6,0-34.2
		c0.1-0.6,0.3-1.3,0.4-1.9c-3.1,7.7-6.7,15.7-9.8,19.9c-7.2,9.5-11.2,11.1-11.2,11.1s-3.3-8.2,5.1-30.7c0.1-0.3,0.2-0.7,0.4-1
		c-1.2,2.9-2.6,5.7-4,8.4c-7,12.7-14.4,17.3-14.4,17.3C51.2,266.1,62.1,230,66.8,223.4z"/>
	<path class="st2" d="M37,215.1c3.6-0.8,7.7,0,11.4,0.7c-5.2,11.6-13.7,13.7-13.7,13.7c-2.8-4.2-2.9-9.9-2.1-14.9
		C33.8,215.3,35.3,215.5,37,215.1z"/>
	<path class="st3" d="M63.3,217.6c4.7-6.6,14.3,3.5,14.3,3.5s-0.4,1.6-1.3,4.3c2.1-5.7,2.8-6.3,5.4-6.9c4.2-0.9,12.4,1.1,10.9,5.3
		c0,0,0,0.1-0.1,0.2c0.6-1.2,1-1.8,1-1.8c1-2.7,12.6,0.5,13.3,1.4c0.3,0.5,0.3,4-0.6,9.6c3.2-9.3,5.6-9.6,5.6-9.6l9.8,1.3
		c0,0,0.2,2.3,0.2,6.2c1.8-5,3.3-5.4,3.3-5.4l9.9,0.3c0,0,1.1,5.4,1,13.3c2.5-12.2,5.3-12.8,5.3-12.8l9.9,0.3c0,0,0.6,3.2,0.9,8.3
		c1.4-7.8,3.4-8.4,3.4-8.4l9.9-0.6c0,0,1.8,6.1,2.4,15.2c1.2-15,4.3-16,4.3-16l9.9-0.6c0,0,2.1,5.1,3.6,12.9
		c0.2-12.1,2.8-13.2,2.8-13.2l9.8-1.5c0,0,0,0.1,0.1,0.2c0.4-1.9,1-2.3,1-2.3l9.4-3.1c0,0,2.3,3,5,8.1c0-1.6,0.4-2,0.4-2l8.5-5.1
		c0,0,4.5,3.8,9.6,10.3c-4.6-8.7-3.4-10.6-3.4-10.6l7.7-6.9c0,0,7.5,4.9,15.8,13.9c-17.1-20.8-14.2-25.3-14.2-25.3l7.2-8.1
		c0,0,5,2.8,11.8,8.2c-0.8-1.7-0.6-2.3-0.6-2.3l6.1-9c0,0,4.9,2,11.9,6.2c-2.3-3.1-2.1-4.2-2.1-4.2l5.3-9.4c0,0,4.5,1.4,11.2,4.6
		c-0.5-0.9-0.5-1.3-0.5-1.3l4.2-10c0,0,6.2,1.2,15.1,4.5l2.5-10.5c0,0,4.8,0.1,12.1,1.3c-1.1-1-1.2-1.5-1.2-1.5l1.8-10.7
		c0,0,6.5-0.2,16.1,1c-5-2.5-5.3-4-5.3-4l1.2-10.7c0,0,5-0.5,12.7-0.1c-6-2.3-6.5-3.8-6.5-3.8l0.3-10.8c0,0,3.5-0.6,9.3-1
		c-3.7-1.2-4.1-2.2-4.1-2.2l-1.2-10.8c0,0,2.8-0.9,7.6-2c-5.2-0.5-5.9-1.7-5.9-1.7l-2.8-10.4c0,0,1.8-0.9,5.1-2.3l-3.2-7.4
		c0,0,0.2-0.1,0.5-0.4c-1,0-1.3-0.2-1.3-0.2l-4.7-6.5c0,0,0.1-0.1,0.2-0.2l-5.5-5.2c0,0,8.7-18.7,43.3-29.1c0,0-0.1,5-9.1,14.5
		c6.3-2.7,13.4-4.7,20.9-5.2c0,0,0.8,8.5-13.9,18.5c9.6-2.7,20.8-4.1,32.3-2.4c0,0-0.9,7.3-13.4,14.2c7.6,0.1,15.6,1.1,23.5,3.5
		c0,0-3.3,12.4-30.6,17.7c10.4,0.8,21.6,3.1,32.2,8.2c0,0-5.1,11.4-31.7,12.6c8.9,2.3,18,5.9,26.5,11.5c0,0-6.2,10-30.8,8.3
		c7.8,3,15.6,7.1,22.8,12.9c0,0-7,9.3-31.1,5.7c6.2,3.1,12.2,7.1,17.8,12.1c0,0-6.6,7.9-27.3,4.7c4.5,3,8.8,6.5,12.8,10.5
		c0,0-10,10.6-40.7-1c6.4,4.9,12.4,10.9,17.5,18c0,0-9.8,7.4-33.5-4.2c5,5.2,9.7,11.3,13.4,18.2c0,0-10,5.8-30.7-6.8
		c4.5,5.5,8.5,11.8,11.6,18.8c0,0-12.3,5.9-35.3-13.4c4.5,6.8,8.4,14.5,10.9,23.1c0,0-14.4,4.9-35.4-18.4c7,8.9,13.5,20.4,15.7,34.1
		c0,0-13.4,3.4-30.3-19.9c-1-1.4-1.9-2.7-2.8-3.9c3.7,7.6,6.3,16.7,5.6,26.8c0,0-12.8,1.5-23.6-19.3c1.4,7.6,1.5,15.8-1,24.2
		c0,0-9-2.1-15.6-14.6c-0.4,6.2-1.9,12.7-4.9,19c0,0-10.7-3-13.9-22.2c-0.5,7.8-2.6,16.2-7.3,24c0,0-10.7-4.1-11.9-24.2
		c-0.9,8.1-3.3,17-8.4,25.4c0,0-8-4.1-8.3-25.7c-1.6,8.3-4.8,17.4-10.9,25.5c0,0-6.7-4.2-6.1-22.6c-1.8,7.2-4.9,14.8-10.1,21.8
		c0,0-7-4.4-6.1-24c-2.5,7.3-6.3,14.8-12.3,21.5c0,0-6.5-5-3.8-24.1c-5,16.2-9.6,20.8-16.1,25.1c-3-5.7-3.9-13.6,0-34.2
		c0.1-0.6,0.3-1.3,0.4-1.9c-3.1,7.7-6.7,15.7-9.8,19.9c-7.2,9.5-11.2,11.1-11.2,11.1s-3.3-8.2,5.1-30.7c0.1-0.3,0.2-0.7,0.4-1
		c-1.2,2.9-2.6,5.7-4,8.4c-7,12.7-14.4,17.3-14.4,17.3C47.7,260.3,58.6,224.2,63.3,217.6z"/>
	<path class="st0" d="M2.8,196.5c13.6-9.5,32.5-13.1,70.5-8.9c54.8,6.2,104.4,2.1,145.1-16.1c40.6-18.2,46-48.6,62.2-71.3
		c6-8.4,13-15.3,19.6-20.8l12.7,4.8l27.5-12.8c8.7-2.2,18.6-3.3,28.9-1.8c0,0-0.8,6.9-12.7,13.5c7.2,0.1,14.8,1,22.3,3.3
		c0,0-3.1,11.8-29,16.7c9.9,0.7,20.4,2.9,30.5,7.8c0,0-4.8,10.8-30.1,11.9c8.4,2.2,17.1,5.6,25.1,10.9c0,0-5.8,9.4-29.2,7.9
		c7.4,2.8,14.8,6.8,21.6,12.2c0,0-6.6,8.8-29.5,5.4c5.9,3,11.6,6.7,16.9,11.5c0,0-6.3,7.5-25.8,4.4c4.3,2.8,8.4,6.1,12.2,10
		c0,0-9.5,10-38.5-0.9c6,4.7,11.8,10.3,16.6,17.1c0,0-9.3,7-31.7-4c4.8,5,9.2,10.7,12.7,17.2c0,0-9.5,5.5-29.1-6.5
		c4.2,5.2,8.1,11.2,11,17.8c0,0-11.6,5.6-33.5-12.7c4.3,6.4,8,13.7,10.4,21.9c0,0-11.3,3.8-28.4-12.1c4.7,7.5,8.5,16.6,9.7,27.1
		c0,0-12.7,3.3-28.7-18.9c-0.9-1.3-1.8-2.5-2.6-3.7c3.5,7.2,5.9,15.8,5.4,25.4c0,0-12.1,1.4-22.4-18.3c1.3,7.2,1.4,15-1,22.9
		c0,0-8.5-2-14.8-13.8c-0.4,5.9-1.8,12-4.7,18c0,0-10.2-2.8-13.2-21.1c-0.5,7.4-2.4,15.3-7,22.8c0,0-10.1-3.9-11.3-23
		c-0.9,7.7-3.1,16.1-7.9,24c0,0-7.5-3.8-7.9-24.3c-1.5,7.9-4.6,16.4-10.3,24.2c0,0-6.3-4-5.8-21.5c-1.7,6.9-4.6,14.1-9.5,20.7
		c0,0-6.6-4.2-5.7-22.7c-2.3,6.9-6,14.1-11.7,20.4c0,0-6.1-4.7-3.6-22.8c-4.8,15.4-9.1,19.7-15.3,23.8c-2.8-5.4-3.7-12.9,0-32.4
		c0.1-0.6,0.2-1.2,0.4-1.8c-2.9,7.3-6.3,14.9-9.3,18.9c-6.8,9-10.6,10.5-10.6,10.5s-3.2-7.8,4.8-29.1c1.2-3.1,2.1-5.7,2.9-8
		C45.6,232,37,234.2,37,234.2c-6.3-9.4,2.8-38.1,2.8-38.1c-12.8-3.8-24.8-0.7-34.6,4.4c-1.5,0.8-3.3-0.3-3.3-2v-0.1
		C1.9,197.7,2.2,197,2.8,196.5z"/>
	<path class="st4" d="M-0.4,193.9v-0.1c0-0.7,0.4-1.5,1-1.9c13.6-9.5,32.5-13.1,70.5-8.9c54.8,6.2,104.4,2.1,145.1-16.1
		s46-48.6,62.2-71.3c16.2-22.7,40.2-35.1,40.2-35.1c8.2-5.2,18.9-10,31-10.8c0,0,0.8,8-13.2,17.5c9.1-2.5,19.7-3.9,30.6-2.2
		c0,0-0.8,6.9-12.7,13.5c7.2,0.1,14.8,1,22.3,3.3c0,0-3.1,11.8-29,16.7c9.9,0.7,20.4,2.9,30.5,7.8c0,0-4.8,10.8-30.1,11.9
		c8.4,2.2,17.1,5.6,25.1,10.9c0,0-5.8,9.4-29.2,7.9c7.4,2.8,14.8,6.8,21.6,12.2c0,0-6.6,8.8-29.5,5.4c5.9,3,11.6,6.7,16.9,11.5
		c0,0-6.3,7.5-25.8,4.4c4.3,2.8,8.4,6.1,12.2,10c0,0-9.5,10-38.5-0.9c6,4.7,11.8,10.3,16.6,17.1c0,0-9.3,7-31.7-4
		c4.8,5,9.2,10.7,12.7,17.2c0,0-9.5,5.5-29.1-6.5c4.2,5.2,8.1,11.2,11,17.8c0,0-11.6,5.6-33.5-12.7c4.3,6.4,8,13.7,10.4,21.9
		c0,0-11.3,3.8-28.4-12.1c4.7,7.5,8.5,16.6,9.7,27.1c0,0-12.7,3.3-28.7-18.9c-0.9-1.3-1.8-2.5-2.6-3.7c3.5,7.2,5.9,15.8,5.4,25.4
		c0,0-12.1,1.4-22.4-18.3c1.3,7.2,1.4,15-1,22.9c0,0-8.5-2-14.8-13.8c-0.4,5.9-1.8,12-4.7,18c0,0-10.2-2.8-13.2-21.1
		c-0.5,7.4-2.4,15.3-7,22.8c0,0-10.1-3.9-11.3-23c-0.9,7.7-3.1,16.1-7.9,24c0,0-7.5-3.8-7.9-24.3c-1.5,7.9-4.6,16.4-10.3,24.2
		c0,0-6.3-4-5.8-21.5c-1.7,6.9-4.6,14.1-9.5,20.7c0,0-6.6-4.2-5.7-22.7c-2.3,6.9-6,14.1-11.7,20.4c0,0-6.1-4.7-3.6-22.8
		c-4.8,15.4-9.1,19.7-15.3,23.8c-2.8-5.4-3.7-12.9,0-32.4c0.1-0.6,0.2-1.2,0.4-1.8c-2.9,7.3-6.3,14.9-9.3,18.9
		c-6.8,9-10.6,10.5-10.6,10.5s-3.2-7.8,4.8-29.1c1.2-3.1,2.1-5.7,2.9-8c-5.2,11.7-13.8,13.9-13.8,13.9c-6.3-9.4,2.8-38.1,2.8-38.1
		c-12.8-3.8-24.8-0.7-34.6,4.4C1.4,196.7-0.4,195.6-0.4,193.9z"/>
</g>
</svg>
