<?xml version="1.0" encoding="utf-8"?>
<!-- Generator: Adobe Illustrator 24.2.3, SVG Export Plug-In . SVG Version: 6.00 Build 0)  -->
<svg version="1.0" id="Layer_1" xmlns="http://www.w3.org/2000/svg" xmlns:xlink="http://www.w3.org/1999/xlink" x="0px" y="0px"
	 viewBox="0 0 200 180" style="enable-background:new 0 0 200 180;" xml:space="preserve">
<style type="text/css">
	.st0{fill:#FFFFFF;}
</style>
<g>
	<g>
		<g>
			<path class="st0" d="M82,150.8c-5.8,0-12.1,4.4-12.1,9c0,2.5,1.3,3.3,3.7,3.3c0-0.3-0.5-0.6-0.5-2.3c0-5.2,3.7-8.4,9.3-8.4
				c4,0,4.8,2.4,4.8,6.8c0,6.6-2.5,14.9-6.6,14.9c-0.7,0-1.3-0.2-2-0.7l4.1-19.3l-5.1,0.7l-4.7,21.9h5l0.3-1.4
				c1.5,1.3,2.9,1.8,4.2,1.8c5.1,0,9.5-8.1,9.5-17C91.9,155.3,89.9,150.8,82,150.8z"/>
			<path class="st0" d="M98.1,157.6c1.5,0,2.8-1.2,2.8-2.7s-1.2-2.8-2.8-2.8c-1.5,0-2.7,1.2-2.7,2.8S96.6,157.6,98.1,157.6z"/>
			<path class="st0" d="M127.6,159.3v-0.5l-5,1c-0.6,2.6-1.3,5.7-2.4,7.9c-1.4,0.1-2.6,1.7-2.6,4.5c-0.6,0.8-1.1,1.3-1.4,1.3
				c-0.8,0-1.1-0.4-1.1-1.1c0-0.3,0.1-0.8,0.2-1.3l2.4-11.7h-4.9l-0.2,0.9c-0.6-0.5-1.5-0.9-2.3-0.9c-6.8,0-9,7-9,12.9
				c-0.8,0.7-1.7,1.2-2.4,1.2c-1.4,0-1.7-0.6-1.7-1.3c0-0.3,0.1-0.7,0.1-1.1l2.5-11.7h-5l-2.5,11.7c-0.1,0.7-0.2,1.2-0.2,1.8
				c0,2.6,1.7,3.8,4.3,3.8c1.5,0,3.3-1.4,5-2.9c0.4,1.6,1.5,3.1,4.1,3.1c2.1,0,3.7-1.4,4.7-2.9c0.4,1.7,1.7,2.7,4.1,2.7
				c1,0,2.2-1.1,3.5-2.7c0.6,2,2.5,2.7,5.7,2.7c4.7,0,6.7-2.8,6.7-6C130.1,166.7,127.6,165,127.6,159.3z M110.2,171.2
				c-0.1,0.4-0.2,0.8-0.2,1.1c-0.7,1-1.4,1.8-2.2,1.8c-0.9,0-2-0.4-2-2.4c0-4.7,2.1-10.2,4.7-10.2c0.5,0,1.1,0.1,1.7,0.6
				L110.2,171.2z M122.2,174.7c-1.3,0-3-0.9-3-2.3c0-0.2,0-0.4,0.1-0.6c0.4,0.2,0.8,0.3,1.2,0.3c1.2,0,2.2-0.9,2.3-2.2
				c0-1-0.3-1.7-1.1-1.9c0.8-1.7,1.2-3.9,1.8-5.6c0.1,4.3,1.6,6.1,1.6,8.3C125.1,173.2,123.4,174.7,122.2,174.7z"/>
		</g>
		<g>
			<g>
				<path class="st0" d="M50,167.1H2.7c-1.5,0-2.7-1.2-2.7-2.7V10.2c0-1.5,1.2-2.7,2.7-2.7H50c1.5,0,2.7,1.2,2.7,2.7
					s-1.2,2.7-2.7,2.7H5.3v149H50c1.5,0,2.7,1.2,2.7,2.7S51.4,167.1,50,167.1z"/>
			</g>
			<g>
				<path class="st0" d="M197.3,167.1H150c-1.5,0-2.7-1.2-2.7-2.7s1.2-2.7,2.7-2.7h44.7v-149H150c-1.5,0-2.7-1.2-2.7-2.7
					s1.2-2.7,2.7-2.7h47.3c1.5,0,2.7,1.2,2.7,2.7v154.3C200,165.9,198.8,167.1,197.3,167.1z"/>
			</g>
		</g>
	</g>
	<g>
		<path class="st0" d="M65.4,4.8c0.9,0.2,1.8,0.4,2.7,0.4c1.5-0.3,1.6-1.5,1.8-2.3c-0.5,0.2-1.1,0.2-1.7,0.2c-1.2,0-2.4-0.2-3.2-0.2
			c-4.8,0-6.6,2.5-6.6,5c0,1.4,0.7,1.9,2.1,1.9c0-0.2-0.3-0.3-0.3-1.3c0-3.1,1-3.9,2.5-4l-2.8,12.9h2.8l1.4-6.7H67l0.4-1.4h-3
			L65.4,4.8z"/>
		<path class="st0" d="M106.1,15c0-0.4,0.8-3.8,0.9-4.5c0-0.2,0-0.3,0-0.4c0-1.3-1.2-2.4-2.2-2.4c-0.9,0-1.7,0.5-2.5,1l0.2-1h-2.8
			l-1.6,7.4c-0.4,0.3-0.8,0.5-1.1,0.5c-0.8,0-1-0.3-1-0.7c0-0.2,0-0.4,0.1-0.6l1.4-6.6h-2.8l-0.1,0.5c-0.3-0.3-0.8-0.5-1.3-0.5
			c-3.8,0-5,3.8-5.1,7c-0.5,0.4-1.1,0.8-1.6,0.8c-0.8,0-1-0.3-1-0.7c0-0.1,0-0.3,1.3-6.4h1.2l0.2-0.8h-1.2c0.4-1.7,0.7-3.1,0.7-3.1
			L85.1,5l-0.6,2.7h-0.6l-0.2,0.8h0.6c-0.3,1.4-1,4.3-1.2,6c-0.6,0.6-1.4,1.2-1.9,1.2c-0.8,0-1-0.3-1-0.7c0-0.2,0-0.3,0.1-0.6
			l2.2-10.4l-2.9,0.4l-2.1,10.1c-0.1,0.3-0.1,0.5-0.1,0.8c-0.4,0.3-0.8,0.6-1.2,0.6c-0.8,0-1-0.3-1-0.7c0-0.2,0-0.4,0.1-0.6l1.4-6.6
			h-2.8l-0.1,0.5c-0.3-0.3-0.8-0.5-1.3-0.5c-3.9,0-5.1,4-5.1,7.3c0,1.1,0.5,2.5,2.4,2.5c1.2,0,2-0.8,2.6-1.6c0.3,1,1.1,1.5,2.4,1.5
			c0.8,0,1.8-0.7,2.6-1.5c0.2,1,1.1,1.5,2.3,1.5c1,0,2.2-1.1,3.2-2.1c0,1.4,0.9,2.1,2.4,2.1c0.9,0,2-0.9,3-1.8
			c0.2,1,0.8,1.9,2.4,1.9c1.2,0,2-0.8,2.6-1.6c0.3,1,1.1,1.5,2.4,1.5c0.7,0,1.5-0.5,2.2-1.1l-0.2,1.1h2.8l1.6-7.8
			c0.4-0.3,0.8-0.4,1.2-0.4c0.5,0,0.9,0.4,0.9,1.1c0,0.2,0,0.3-0.1,0.5l-0.7,3.5c-0.1,0.4-0.1,0.7-0.1,1c0,1.5,0.7,2.1,2,2.1
			c0.7,0,1.5-0.1,2-1.8c-0.2,0.1-0.4,0.1-0.5,0.1C106.2,15.6,106.1,15.4,106.1,15z M72.5,14.3c-0.1,0.2-0.1,0.4-0.1,0.6
			c-0.4,0.5-0.8,1-1.2,1c-0.5,0-1.1-0.2-1.1-1.4c0-2.6,1.2-5.7,2.6-5.7c0.3,0,0.6,0.1,0.9,0.3L72.5,14.3z M93.4,14.3
			c-0.1,0.2-0.1,0.4-0.1,0.6c-0.4,0.5-0.8,1-1.2,1c-0.5,0-1.1-0.2-1.1-1.4c0-2.6,1.2-5.7,2.6-5.7c0.3,0,0.6,0.1,0.9,0.3L93.4,14.3z"
			/>
		<path class="st0" d="M141.4,9c-0.4,0.5-0.6,0.8-1.1,1.1c0-0.1,0-0.1,0-0.2c0-0.4-0.3-0.5-0.7-0.5c-0.6,0-1.3,0.8-1.3,1.5
			c0,0.4,0.2,0.7,0.5,0.8c-0.2,1.8-0.9,3.9-2,3.9c-0.8,0-1.4-0.3-1.4-1.5c0-1.5,0.7-5.5,2.6-5.5c0.4,0,0.7,0.3,0.9,0.7
			c0.4-0.1,0.9-0.4,0.9-0.9c0-0.5-0.9-0.9-1.8-0.9c-2.6,0-5.1,2.1-5.1,6.8c0,0.2,0,0.5,0,0.7c-0.4,0.3-0.9,0.6-1.3,0.6
			c-0.8,0-1-0.3-1-0.7c0-0.2,0-0.3,0.1-0.6l2.2-10.4l-2.9,0.4L129,10c-0.4,0.2-0.7,0.5-1.2,0.5c-0.3,0-0.4-0.1-0.6-0.2
			c0-1.4-0.5-2.8-2.3-2.8c-2.5,0-4.8,1.8-5.1,5.9c-0.3,0.3-0.6,0.6-1,1c0-0.1,0-0.3,0-0.4c0-2.3-1.3-3.2-1.3-6.4V7.3l-2.8,0.6
			c-0.3,1.5-0.8,3.2-1.5,4.4c-0.8,0.1-1.5,0.9-1.5,2.5c0,1.9,1.1,2.5,3.3,2.5c1.8,0,2.9-0.7,3.4-1.8c0.5-0.4,0.9-0.8,1.3-1.1
			c0,2.2,0.9,3.1,3,3.1c1.9,0,4-1.9,4.4-5.8c0.6-0.2,1.2-0.4,1.7-0.8l-0.7,3.4c-0.1,0.4-0.1,0.7-0.1,1c0,1.5,0.9,2.1,2.4,2.1
			c0.8,0,1.9-0.8,2.8-1.6c0.4,1.3,1.3,1.8,2.9,1.8c1.8,0,4.1-2,4.3-6c0.8-0.5,1.1-1.4,1.3-2L141.4,9z M114.4,16.2
			c-1,0-1.6-0.5-1.6-1.6c0.2,0.1,0.5,0.2,0.7,0.2c0.7,0,1.3-0.5,1.3-1.2c0-0.6-0.2-0.9-0.6-1.1c0.4-1,0.7-2.2,1-3.2
			c0,2.4,0.9,3.4,0.9,4.6C116,15.4,115,16.2,114.4,16.2z M125.7,11.9c-0.2,1.9-0.9,3.7-2.1,3.7c-0.8,0-1.3-0.3-1.3-1.5
			c0-1.5,0.8-5.5,2.6-5.5c0.5,0,0.8,0.4,0.8,1c-0.5,0.2-0.9,0.8-0.9,1.4C124.9,11.5,125.2,11.9,125.7,11.9z"/>
	</g>
</g>
</svg>
